<?xml version="1.0" encoding="utf-8"?>
<!-- Generator: Adobe Illustrator 12.0.0, SVG Export Plug-In . SVG Version: 6.00 Build 51448)  -->
<!DOCTYPE svg PUBLIC "-//W3C//DTD SVG 1.1//EN" "http://www.w3.org/Graphics/SVG/1.1/DTD/svg11.dtd" [
	<!ENTITY ns_svg "http://www.w3.org/2000/svg">
	<!ENTITY ns_xlink "http://www.w3.org/1999/xlink">
]>
<svg  version="1.1" id="Layer_1" xmlns="&ns_svg;" xmlns:xlink="&ns_xlink;" width="14.099" height="15.549"
	 viewBox="0 0 14.099 15.549" overflow="visible" enable-background="new 0 0 14.099 15.549" xml:space="preserve">
<path fill="#FFFFFF" d="M5.871,9.092c0.568,0.634,1.492,0.634,2.061,0c0.569-0.634,0.569-1.661,0-2.295
	c-0.568-0.634-1.492-0.634-2.061,0C5.302,7.431,5.302,8.458,5.871,9.092"/>
<polygon fill="#FFFFFF" points="4.682,5.137 9.433,10.438 13.9,0.197 "/>
<g>
	<path fill="#FFFFFF" d="M4.533,4.913L4.421,5.034L0,15.229l0.347,0.32l9.171-4.893l0.112-0.12l4.468-10.215L13.752,0L4.533,4.913z
		 M13.352,0.78c-0.5,1.144-4.08,9.33-4.145,9.476c-0.14,0.075-7.377,3.936-8.463,4.515c0.495-1.141,4.038-9.31,4.102-9.457
		C4.986,5.238,12.261,1.361,13.352,0.78z"/>
</g>
</svg>
