<?xml version="1.0" encoding="utf-8"?>
<!-- Generator: Adobe Illustrator 12.0.0, SVG Export Plug-In . SVG Version: 6.00 Build 51448)  -->
<!DOCTYPE svg PUBLIC "-//W3C//DTD SVG 1.1//EN" "http://www.w3.org/Graphics/SVG/1.1/DTD/svg11.dtd" [
	<!ENTITY ns_svg "http://www.w3.org/2000/svg">
	<!ENTITY ns_xlink "http://www.w3.org/1999/xlink">
]>
<svg  version="1.1" id="Layer_1" xmlns="&ns_svg;" xmlns:xlink="&ns_xlink;" width="21.65" height="39" viewBox="0 0 21.65 39"
	 overflow="visible" enable-background="new 0 0 21.65 39" xml:space="preserve">
<path fill="#3D3D3C" d="M9.972,25.643c0.799,0,1.554-0.314,2.125-0.885c0.571-0.57,0.886-1.326,0.886-2.125v-6.266
	c0-0.8-0.314-1.555-0.886-2.125c-0.57-0.571-1.325-0.886-2.125-0.886H4.091c-0.799,0-1.554,0.315-2.125,0.886
	c-0.57,0.57-0.885,1.325-0.885,2.125v6.266c0,0.799,0.315,1.555,0.885,2.125c0.571,0.57,1.326,0.885,2.125,0.885H9.972z
	 M9.972,26.725H4.091C1.841,26.725,0,24.883,0,22.633v-6.266c0-2.251,1.841-4.092,4.091-4.092h5.881c2.25,0,4.091,1.841,4.091,4.092
	v6.266C14.063,24.883,12.222,26.725,9.972,26.725"/>
<path fill="#3D3D3C" d="M7.035,16.911c-1.401,0-2.536,1.136-2.536,2.536s1.135,2.535,2.536,2.535c1.4,0,2.536-1.135,2.536-2.535
	S8.435,16.911,7.035,16.911 M10.926,19.444c0,2.139-1.734,3.873-3.873,3.873c-2.138,0-3.872-1.734-3.872-3.873
	c0-2.139,1.734-3.872,3.872-3.872C9.192,15.572,10.926,17.305,10.926,19.444"/>
<path fill="#3D3D3C" d="M11.905,15.511c0,0.506-0.411,0.917-0.917,0.917s-0.917-0.411-0.917-0.917c0-0.506,0.411-0.917,0.917-0.917
	S11.905,15.005,11.905,15.511"/>
<line fill="none" stroke="#3D3D3C" stroke-width="0.5" x1="21.4" y1="0" x2="21.4" y2="39"/>
</svg>
