<?xml version="1.0" encoding="utf-8"?>
<!-- Generator: Adobe Illustrator 12.0.0, SVG Export Plug-In . SVG Version: 6.00 Build 51448)  -->
<!DOCTYPE svg PUBLIC "-//W3C//DTD SVG 1.1//EN" "http://www.w3.org/Graphics/SVG/1.1/DTD/svg11.dtd" [
	<!ENTITY ns_svg "http://www.w3.org/2000/svg">
	<!ENTITY ns_xlink "http://www.w3.org/1999/xlink">
]>
<svg  version="1.1" id="Layer_1" xmlns="&ns_svg;" xmlns:xlink="&ns_xlink;" width="85.313" height="73.877"
	 viewBox="0 0 85.313 73.877" overflow="visible" enable-background="new 0 0 85.313 73.877" xml:space="preserve">
<g>
	<path fill="#FFFFFF" d="M14.149,34.426c-0.3-0.097-1.216-0.048-1.547-0.031C9.96,34.532-0.307,65.6,0.007,71.622
		c0.062,1.176,0.452,2.26,1.809,2.188c0.441-0.023,0.91-0.195,1.344-0.326c3.779-6.605,4.799-14.539,7.869-21.329
		c1.499-0.228,3.063-0.603,4.641-0.686l0.01,0.221c0.396,2.632,1.116,5.171,1.661,7.792c0.162,0.947,0.944,6.064,1.574,6.842
		l0.479-0.023c0.403-0.021,0.978-0.271,1.375-0.441C20.591,62.441,16.361,35.122,14.149,34.426z M15.207,49.69
		c0.003,0.039-0.034,0.039-0.107,0.042c-0.589,0.031-1.244,0.138-1.829,0.206c-0.476,0.063-0.91,0.197-1.461,0.225
		c-0.11,0.007-0.182,0.01-0.258-0.023c0.241-1.006,1.881-8.348,1.867-8.641l0.007,0.109c0.189,0.101,0.42,1.672,0.434,1.93
		c0.393,1.895,1.127,3.918,1.227,5.829C15.158,49.47,15.203,49.581,15.207,49.69z"/>
	<path fill="#FFFFFF" d="M30.406,41.561c-0.706,0.055-1.526,0.168-2.491,0.34c-0.934,0.142-1.585,0.17-1.954,0.086
		c-0.341-0.086-0.678,2.01-1.047,6.254c-0.369,4.299-0.565,7.441-0.651,9.504c-0.086,2.064-0.114,3.99-0.114,5.799
		c0,1.13,0.114,5.006,1.33,5.543h1.839c0.369-0.369,5.629-0.482,6.112-0.848l0.482-1.244c0-0.027,0.055-0.086-0.593-0.086
		c-1.812,0-3.535,0.283-5.347,0.594c-0.086-0.197-0.086-0.452-0.086-0.68c0-3.648,0.565-7.469,0.765-11.117l0.2-0.168
		c1.02,0.027,2.036-0.056,3.056-0.256c0.142-0.141,0.565-0.65,0.565-0.848V54.01l-1.895-0.027c-0.593,0-1.244-0.086-1.84,0.113
		c0.424-3.734,0.961-7.186,0.961-10.947c1.443,0,2.856,0,4.299-0.311c0.228-0.141,0.482-1.16,0.482-1.443l-0.624-0.027
		C33.29,41.364,31.846,41.418,30.406,41.561z"/>
	<path fill="#FFFFFF" d="M58.07,65.036c-0.352-0.311-0.571-0.655-0.688-1.006c-0.031-0.045-0.066-0.087-0.101-0.129
		c-1.392-1.521-3.489-3.492-5.164-4.592c-2.112-1.74-3.032-2.332-4.599-3.297c3.097-0.844,5.9-3.094,7.678-6.043
		c0.672-1.344,0.928-1.891,1.227-2.932c0.672-2.053,0.803-2.91,0.565-4.064c-0.32-1.365-0.686-2.302-1.554-3.283
		c-0.865-0.947-2.029-1.558-3.582-1.479l-0.211,0.011c-0.564,0.03-1.34,0.069-2.49,0.448c-0.979,0.227-1.182,0.416-1.909,0.771
		c-1.209,0.596-1.688,0.902-2.474,1.475c-0.533,0.596-2.057,1.984-2.418,2.497l-0.234,0.224l-0.134,0.114l-0.114-0.134
		c-0.042-0.139-0.083-0.245-0.09-0.349c-0.434-0.827-0.679-1.488-1.109-2.277l-0.255-0.837l-0.379,0.196
		c-0.176,0.011-0.53,0.028-0.768,0.183l-0.565,0.031l0.017,0.352c0.024,0.458-0.221,3.197-0.176,4.044
		c0.055,1.023,0.031,4.638,0.131,6.542l0.08,1.485l-0.396-0.155c-0.396-0.121-0.548-0.289-0.803-0.455l-0.183-0.131l-0.382,0.162
		l-0.902,0.365c-0.172,0.113-0.31,0.158-0.452,0.199c0.007,0.107,0.01,0.176,0.045,0.211c0.045,0.176,0.086,0.279,0.193,0.311
		c0.221,0.803,1.209,1.422,2.618,2.021l0.407,0.334l0.045,0.848c0.282,2.006,0.448,4.475,0.703,5.984
		c0.055,1.023,0.344,2.494,0.403,3.662c0.317,2.674,0.61,4.182,0.645,4.854c0.203,0.521,0.227,0.979,0.238,1.158
		c0.027,0.53,0,0.672,0.248,0.661c0.175-0.011,0.389-0.021,0.768-0.217c0,0,0.031-0.072,0.059-0.218l0.1-0.109l0.017,0.316
		c-0.09,0.289-0.114,0.537-0.21,0.721l-0.124,0.324c0.011,0.175,0.979-0.229,1.357-0.424c0.452-0.201,0.751-0.535,0.937-1.041
		c0.345-0.868,0.428-2.005,0.6-3.396c0.107-1.075,0.189-3.156,0.148-4.503c-0.113-1.116-0.131-2.25-0.135-3.366
		c-0.121-0.692-0.193-1.336-0.21-1.912c2.28,1.523,4.334,2.956,5.002,3.486c0.462,0.304,3.838,2.887,5.006,3.734
		c0.469,0.331,1.43,1.055,2.392,1.678c0.068,0.045,0.141,0.094,0.209,0.139c0.827-0.024,1.605-0.09,2.33-0.256
		c-0.025-0.199-0.053-0.379-0.08-0.499C59.135,66.52,58.745,65.631,58.07,65.036z M43.642,45.688c1.474-1.6,3.322-2.867,5.671-3.979
		c1.137-0.593,2.084-0.782,2.684-0.813c0.555-0.207,0.564-0.031,0.998,0.125c0.396,0.12,0.803,0.454,0.82,0.771
		c0.424,0.65,0.283,2.005,0.158,3.035c-0.496,1.336-2.549,4.702-3.613,6.066c-0.361,0.551-1.281,1.236-1.654,1.574
		c-0.792,0.431-1.553,0.754-2.497,0.982c-0.248,0.014-0.769,0.217-1.157,0.237l-0.989,0.052l-0.241-1.191
		c-0.079-1.52-0.51-2.984-0.837-4.49c-0.018-0.316-0.104-0.63-0.152-0.878l-0.093-0.421C42.733,46.583,42.733,46.583,43.642,45.688z
		"/>
	<path fill="#FFFFFF" d="M76.832,39.514l0.582-1.596c0.056-0.217-0.041-0.195-0.189-0.307c-1.123-0.533-7.069-1.305-8.396-1.446
		c-1.826-0.193-11.676-1.419-13.239-0.82c-0.272,0.448-0.514,0.934-0.568,1.437c1.63,0.554,7.438,1.443,9.198,1.664
		c-1.361,4.699-1.822,9.65-2.336,14.469c-0.444,4.158-0.834,8.42-0.414,12.572c0.053,0.42,0.087,1.285,0.687,1.347
		c2.772,0.296,3.135-5.499,3.358-7.606l1.044-9.799c0.362-3.402,0.296-7.266-0.11-10.621C69.126,39.094,74.128,39.766,76.832,39.514
		z"/>
	<path fill="#FFFFFF" d="M85.249,60.377c-0.941-4.079-10.674-4.854-12.041-10.779c-0.225-0.965-0.117-4.414,1.178-4.713
		c2.701-0.624,4.662,1.826,6.543,3.311c0.357-0.083,0.686-0.42,0.878-0.727c-1.161-2.637-4.265-5.781-7.438-5.048
		c-3.857,0.893-4.578,4.568-3.799,7.931c1.52,6.587,14.131,9.764,11.572,11.534c-3.246,3.235-4.338,4.214-7.486,6.421
		c0.014-0.323,0.068-0.713,0.23-1.012c-0.438-0.393-0.924-0.6-1.461-0.797c-0.441,0.104-0.837,3.039-0.695,3.646
		c0.337,1.46,1.57,1.147,2.7,0.886C78.624,70.295,86.079,63.988,85.249,60.377z"/>
	<path fill="#FFFFFF" d="M41.971,37.458l2.457-0.014c0.489-0.568,7.521-0.779,8.157-1.347l0.635-1.916
		c0-0.045,0.076-0.131-0.796-0.127c-2.419,0.014-4.724,0.461-7.142,0.951c-0.113-0.303-0.117-0.696-0.121-1.044
		c-0.031-5.608,0.563-5.33,0.797-10.938l0.262-0.262c1.36,0.034,2.721-0.104,4.082-0.414c0.189-0.217,0.751-1.002,0.748-1.309
		l-0.004-0.651l-2.532-0.031c-0.792,0.003-1.664-0.121-2.456,0.186c0.533-5.739,1.047-4.537,1.013-10.318
		c1.929-0.01,3.82-0.021,5.743-0.51c0.299-0.22,0.633-1.784,0.63-2.218L52.61,7.458c-0.755,0.003-2.684,0.1-4.609,0.331
		c-0.945,0.093-2.04,0.272-3.325,0.541c-1.247,0.224-2.115,0.272-2.608,0.145c-0.455-0.127-0.91-0.52-1.368,6.001
		c-0.455,6.611-0.338,6.649-0.434,9.826c-0.097,3.173-0.141,1.867-0.124,4.647C40.156,30.684,40.342,36.637,41.971,37.458z"/>
	<path fill="#FFFFFF" d="M32.88,35.18c3.262,0.1,3.255-6.243,3.359-8.564l0.279-2.87c0.168-3.697-0.19-7.845-0.899-11.445
		c-0.875-0.255-1.753-0.331-2.653-0.327c-1.237,5.226-1.54,5.739-1.781,11.031c-0.207,4.568-0.007,6.263,0.792,10.759
		C32.07,34.219,32.174,35.159,32.88,35.18z"/>
	<path fill="#FFFFFF" d="M8.878,6.765c0.517-0.145,1.044-0.32,1.564-0.513c0.097-0.035,0.121-0.63,0.369-0.713
		c0.055-0.017,0.266,0.458,0.266,0.458l0,0l1.581,6.77c1.657,7.92,2.615,11.868,3.238,15.854c0.2,1.674,0.934,4.989,1.43,6.136
		c0.179,0.761,0.238,1.016,0.568,1.285c0.241,0.21,0.5,0.341,0.544,0.523l0.51,0.224l0.059-0.245
		c0.369-0.393,0.317-0.61,0.734-1.282c0.744-2.546,0.72-4.954,0.441-9.595c-0.234-1.333-0.334-2.483-0.485-3.555
		c-0.2-1.354-0.62-3.021-0.334-3.121c3.362-0.317,5.157-1.678,7.968-3.538c3.118-2.063,4.476-5.212,3.425-8.933
		c-0.131-0.458-0.29-0.885-0.476-1.285c-0.159-0.11-0.317-0.224-0.455-0.354c-0.018-0.011-0.031-0.024-0.042-0.042
		c-0.1-0.131-0.203-0.262-0.303-0.393c-0.692-0.544-1.261-1.32-1.826-1.96c-0.586-0.665-1.275-1.051-2.002-1.495
		c-1.102-0.441-2.308-0.727-3.559-0.892c-2.05-0.11-2.749-0.138-4.761-0.035c-0.375,0.09-2.163,0.386-2.532,0.517
		c-0.245,0.086-0.489,0.176-0.734,0.266c-1.058,0.044-2.105,0.138-3.083,0.513c-0.055,0.021-0.107,0.045-0.158,0.065
		c-0.024,0.021-0.062,0.052-0.124,0.1c-0.104,0.117-0.162,0.179-0.176,0.186c-0.083,0.124-0.162,0.248-0.234,0.375
		c-0.017,0.027-0.038,0.055-0.055,0.083c0.007,0.031,0.01,0.059,0.017,0.086C9.46,2.538,8.665,2.81,7.855,3.051
		C6.928,3.327,7.965,7.023,8.878,6.765z M18.042,3.782c0.007,0,0.01,0,0.017,0c1.86-0.41,3.838-0.276,5.554,0.458
		c1.326,0.434,2.459,1.192,3.097,2.457c0.027,0.038,0.058,0.069,0.086,0.107c0.427,0.613,0.551,1.223,0.461,1.771
		c0.152,1.847-0.999,3.107-2.818,4.131c-2.022,1.14-2.735,2.218-5.071,2.439c-0.279,0.027-0.527,0.104-0.744,0.213l-0.709-3.045
		c-0.71-3.049-1.306-5.591-2.067-7.555l-0.124-0.524C16.481,4.002,17.253,3.84,18.042,3.782z"/>
</g>
</svg>
